<svg width="200" height="200" viewBox="0 0 200 200" fill="none" xmlns="http://www.w3.org/2000/svg">
<path d="M95.238 42.8571H52.3809C47.3291 42.8571 42.4843 44.8639 38.9122 48.4361C35.34 52.0082 33.3333 56.853 33.3333 61.9048V147.619C33.3333 152.671 35.34 157.516 38.9122 161.088C42.4843 164.66 47.3291 166.667 52.3809 166.667H147.619C152.671 166.667 157.516 164.66 161.088 161.088C164.66 157.516 166.667 152.671 166.667 147.619V104.762" stroke="black" stroke-width="9.52381" stroke-linecap="round" stroke-linejoin="round"/>
<path d="M147.619 52.381L156.695 61.9048M166.667 33.019C169.205 35.6443 170.611 39.1621 170.581 42.8141C170.551 46.4661 169.087 49.96 166.505 52.5429L99.9999 119.048L71.4285 128.571L80.9523 100L147.495 32.8952C149.834 30.5379 152.965 29.1318 156.281 28.9488C159.597 28.7659 162.863 29.8191 165.448 31.9048L166.667 33.019Z" stroke="black" stroke-width="9.52381" stroke-linecap="round" stroke-linejoin="round"/>
</svg>
